<svg width="120" height="121" viewBox="0 0 120 121" fill="none" xmlns="http://www.w3.org/2000/svg">
<circle cx="21.9668" cy="24.7729" r="18.4863" fill="#C6C8F2"/>
<path fill-rule="evenodd" clip-rule="evenodd" d="M34.1309 24.7729C31.9217 24.7729 30.1309 26.5638 30.1309 28.773V87.1475C30.1309 89.3566 31.9217 91.1475 34.1309 91.1475H76.1504C78.3595 91.1475 80.1504 89.3566 80.1504 87.1475V28.7729C80.1504 26.5638 78.3595 24.7729 76.1504 24.7729H34.1309ZM41.6426 36.6147C40.538 36.6147 39.6426 37.5102 39.6426 38.6147V42.9702C39.6426 44.0748 40.538 44.9702 41.6426 44.9702H68.6387C69.7432 44.9702 70.6387 44.0748 70.6387 42.9702V38.6147C70.6387 37.5102 69.7432 36.6147 68.6387 36.6147H41.6426ZM41.6426 49.6045C40.538 49.6045 39.6426 50.4999 39.6426 51.6045V55.96C39.6426 57.0645 40.538 57.96 41.6426 57.96H68.6387C69.7432 57.96 70.6387 57.0645 70.6387 55.96V51.6045C70.6387 50.4999 69.7432 49.6045 68.6387 49.6045H41.6426ZM59.8481 79.0496C59.8481 81.6499 57.7402 83.7578 55.1399 83.7578C52.5396 83.7578 50.4316 81.6499 50.4316 79.0496C50.4316 76.4493 52.5396 74.3413 55.1399 74.3413C57.7402 74.3413 59.8481 76.4493 59.8481 79.0496Z" fill="#2733BB"/>
<rect x="68.4121" y="73.8706" width="39.5566" height="9.03248" rx="2" fill="#C6C8F2"/>
</svg>
