<svg width="120" height="121" viewBox="0 0 120 121" fill="none" xmlns="http://www.w3.org/2000/svg">
<path d="M64.5391 94.0667H89.2559C92.0176 94.0667 94.2559 91.8279 94.2559 89.0667V69.3518C94.2559 66.5906 92.0176 64.3518 89.2559 64.3518H64.5391V94.0667Z" fill="#C6C8F2"/>
<path d="M68.7715 60.0188C72.2051 55.4119 74.2383 49.6985 74.2383 43.511C74.2383 38.7278 73.0234 34.2283 70.8867 30.304H89.2559C92.0176 30.304 94.2559 32.5427 94.2559 35.304V55.0188C94.2559 57.78 92.0176 60.0188 89.2559 60.0188H68.7715Z" fill="#C6C8F2"/>
<path fill-rule="evenodd" clip-rule="evenodd" d="M57.3164 61.3816C63.375 57.7361 67.4277 51.0969 67.4277 43.511C67.4277 32.0007 58.0977 22.6702 46.5879 22.6702C35.0762 22.6702 25.7461 32.0007 25.7461 43.511C25.7461 52.4148 31.3281 60.0139 39.1855 62.9993V64.4163L33.1797 68.5686C31.5488 69.697 31.4414 72.0701 32.9648 73.3406L37.4395 77.0725C38.4551 77.9192 38.3828 79.5012 37.2969 80.2532L33.1797 83.0994C31.5488 84.2278 31.4414 86.6008 32.9648 87.8713L39.1855 93.0593V93.1702L40.625 94.26L45.8359 98.3767C47.0215 99.3035 48.709 99.2107 49.7832 98.1589L56.1133 91.9685C56.3652 91.7214 56.582 91.4441 56.7598 91.1453C57.1211 90.5339 57.3164 89.8313 57.3164 89.1086V61.3816ZM52.5723 43.511C52.5723 46.8167 49.8926 49.4963 46.5879 49.4963C43.2812 49.4963 40.6016 46.8167 40.6016 43.511C40.6016 40.2053 43.2812 37.5256 46.5879 37.5256C49.8926 37.5256 52.5723 40.2053 52.5723 43.511Z" fill="#2733BB"/>
</svg>
