<svg width="121" height="121" viewBox="0 0 121 121" fill="none" xmlns="http://www.w3.org/2000/svg">
<path d="M46.0014 94.3543C37.4215 93.5766 30.1172 87.6108 30.1172 78.3807C30.1172 70.189 36.2834 63.4375 44.2274 62.5145C47.3862 52.7286 56.5699 45.6499 67.4069 45.6499C78.2455 45.6499 87.4303 52.7307 90.5878 62.5188C98.5142 63.4583 104.661 70.2016 104.661 78.3807C104.661 86.9003 97.9919 93.8621 89.5892 94.3295C89.5892 94.4187 49.6564 94.3741 46.0014 94.3543Z" fill="#2733BB"/>
<path d="M56.1502 39.6001C48.7261 43.2961 42.9901 49.876 40.4087 57.8733C34.9406 58.5086 30.1329 61.3089 26.8652 65.3944C20.8793 61.817 16.8711 55.2728 16.8711 47.7925C16.8711 46.3711 17.0158 44.9836 17.2913 43.6438C18.7536 49.2465 23.8487 53.3814 29.9096 53.3814C37.1114 53.3814 42.9497 47.5432 42.9497 40.3414C42.9497 34.2795 38.8134 29.1837 33.2093 27.7224C34.5504 27.4463 35.9394 27.3013 37.3623 27.3013C45.7666 27.3013 52.9891 32.3608 56.1502 39.6001Z" fill="#C6C8F2"/>
<path d="M25.6836 27.3013L28.0638 33.7336L34.4961 36.1138L28.0638 38.4939L25.6836 44.9263L23.3034 38.4939L16.8711 36.1138L23.3034 33.7336L25.6836 27.3013Z" fill="#C6C8F2"/>
<circle cx="94.4775" cy="78.4976" r="15.8857" fill="#D4D5F5"/>
</svg>
