<svg width="121" height="121" viewBox="0 0 121 121" fill="none" xmlns="http://www.w3.org/2000/svg">
<path fill-rule="evenodd" clip-rule="evenodd" d="M22.5625 35.8565C22.5625 34.2104 23.8972 32.8757 25.5433 32.8757H86.0217C87.6679 32.8757 89.0025 34.2104 89.0025 35.8565V44.4438C85.6579 42.8966 81.9319 42.0332 78.005 42.0332C68.1384 42.0332 59.5453 47.4825 55.0697 55.536H25.5433C23.8972 55.536 22.5625 54.2013 22.5625 52.5551V35.8565ZM29.722 37.2178C28.3931 37.2178 27.3146 38.2959 27.3146 39.6255C27.3146 40.955 28.3931 42.0332 29.722 42.0332H33.0361C34.3649 42.0332 35.4434 40.955 35.4434 39.6255C35.4434 38.2959 34.3649 37.2178 33.0361 37.2178H29.722Z" fill="#2733BB"/>
<path fill-rule="evenodd" clip-rule="evenodd" d="M53.4265 59.0975H25.5433C23.8972 59.0975 22.5625 60.4322 22.5625 62.0783V78.7769C22.5625 80.423 23.8972 81.7577 25.5433 81.7577H55.5224C53.1485 77.8137 51.7832 73.1937 51.7832 68.2549C51.7832 65.0336 52.364 61.9484 53.4265 59.0975ZM27.3146 64.6094C27.3146 63.2798 28.3931 62.2016 29.722 62.2016H33.0361C34.3649 62.2016 35.4434 63.2798 35.4434 64.6094C35.4434 65.9389 34.3649 67.0171 33.0361 67.0171H29.722C28.3931 67.0171 27.3146 65.9389 27.3146 64.6094Z" fill="#2733BB"/>
<path fill-rule="evenodd" clip-rule="evenodd" d="M72.6778 61.4245L76.3927 65.1394L61.1562 69.2221L65.2389 53.9856L69.1094 57.8561C76.1004 51.4378 86.9742 51.6163 93.7494 58.3914C100.708 65.3498 100.708 76.6316 93.7494 83.59C86.791 90.5484 75.5092 90.5484 68.5508 83.59L72.1146 80.0262C77.1047 85.0164 85.1954 85.0164 90.1856 80.0262C95.1758 75.036 95.1758 66.9453 90.1856 61.9552C85.3791 57.1486 77.6961 56.9718 72.6778 61.4245Z" fill="#C6C8F2"/>
</svg>
