<svg width="121" height="121" viewBox="0 0 121 121" fill="none" xmlns="http://www.w3.org/2000/svg">
<path d="M23.4609 36.5103C23.4609 34.3011 25.2518 32.5103 27.4609 32.5103H78.5046C80.7137 32.5103 82.5046 34.3011 82.5046 36.5103V58.9569C82.5046 61.166 80.7137 62.9569 78.5046 62.9569H27.4609C25.2518 62.9569 23.4609 61.166 23.4609 58.9569V36.5103Z" fill="#2733BB"/>
<path d="M24.9625 72.6935C24.2121 70.1325 26.1324 67.5688 28.8011 67.5688H76.9508C79.6822 67.5688 81.6102 70.2458 80.7446 72.8364L73.2449 95.2831C72.6997 96.9151 71.1718 98.0155 69.4511 98.0155H35.3779C33.6019 98.0155 32.0386 96.8445 31.5392 95.1402L24.9625 72.6935Z" fill="#C6C8F2"/>
<circle cx="52.9838" cy="48.0771" r="6.72601" fill="white"/>
<circle opacity="0.8" cx="82.5043" cy="39.2363" r="15.5668" fill="#C6C8F2"/>
</svg>
