<svg width="120" height="121" viewBox="0 0 120 121" fill="none" xmlns="http://www.w3.org/2000/svg">
<rect x="13.6367" y="86.5354" width="92.7266" height="5.29866" rx="2" fill="#C6C8F2"/>
<path fill-rule="evenodd" clip-rule="evenodd" d="M28.2344 29.0938C26.0252 29.0938 24.2344 30.8846 24.2344 33.0938V82.0804H95.7663V33.0937C95.7663 30.8846 93.9754 29.0938 91.7663 29.0938H28.2344ZM47.5337 41.5869C47.5337 41.0346 47.9814 40.5869 48.5337 40.5869H54.5337C55.086 40.5869 55.5337 41.0346 55.5337 41.5869V44.8707C55.5337 45.6367 56.0043 46.3163 56.6672 46.7002C57.331 47.0847 58.1492 47.1487 58.8136 46.7651L61.6581 45.1228C62.1364 44.8467 62.748 45.0105 63.0241 45.4888L66.0241 50.685C66.3002 51.1633 66.1364 51.7749 65.6581 52.051L62.8104 53.6951C62.1472 54.078 61.7931 54.8208 61.7931 55.5867C61.7931 56.3531 62.1474 57.0965 62.8111 57.4797L65.6571 59.1228C66.1354 59.399 66.2992 60.0105 66.0231 60.4888L63.0231 65.685C62.747 66.1633 62.1354 66.3272 61.6571 66.051L58.8123 64.4086C58.1482 64.0252 57.3303 64.089 56.6668 64.4733C56.0042 64.8571 55.5337 65.5364 55.5337 66.3022V69.5869C55.5337 70.1392 55.086 70.5869 54.5337 70.5869H48.5337C47.9814 70.5869 47.5337 70.1392 47.5337 69.5869V66.3074C47.5337 65.5401 47.0621 64.8597 46.398 64.4754C45.7336 64.0909 44.9149 64.0271 44.2501 64.4109L41.4094 66.051C40.9311 66.3272 40.3195 66.1633 40.0433 65.685L37.0433 60.4888C36.7672 60.0105 36.9311 59.399 37.4094 59.1228L40.2481 57.4839C40.9133 57.0998 41.2682 56.3548 41.2682 55.5867C41.2682 55.1591 41.2943 54.7377 41.3451 54.3239C41.3959 53.9101 37.4084 52.051 37.4084 52.051C36.9301 51.7749 36.7662 51.1633 37.0423 50.685L40.0423 45.4888C40.3185 45.0105 40.9301 44.8467 41.4084 45.1228L44.2488 46.7628C44.9139 47.1467 45.733 47.0828 46.3977 46.6982C47.0619 46.3137 47.5337 45.633 47.5337 44.8655V41.5869Z" fill="#2733BB"/>
<circle cx="51.9993" cy="55.5872" r="5.66138" fill="#2733BB"/>
<rect opacity="0.8" x="79.8535" y="34.7935" width="23.844" height="39.74" rx="4" fill="#C6C8F2"/>
<circle cx="99.2312" cy="39.3416" r="1.55347" fill="#2733BB"/>
</svg>
