<svg width="92" height="41" viewBox="0 0 92 41" fill="none" xmlns="http://www.w3.org/2000/svg">
<path d="M46.9903 20.5677L33.3454 32.8994L33.3865 40.4927L72.4873 40.4567C77.9681 40.4567 82.5354 38.5346 86.1893 34.6905C89.8812 30.8463 91.7271 26.1077 91.7271 20.4747C91.7271 14.8417 89.8812 10.1031 86.1893 6.25892C82.5354 2.41476 77.9681 0.492681 72.4873 0.492681H59.3201C61.6601 2.59751 63.1889 5.16945 63.9696 8.06638L72.4873 8.02875C75.9509 8.02875 78.7674 9.18961 80.9368 11.5113C83.1063 13.795 84.1911 16.7828 84.1911 20.4747C84.1911 24.1666 83.1063 27.1734 80.9368 29.4951C78.7674 31.7788 75.9509 32.9206 72.4873 32.9206L45.0492 32.8994L52.8707 25.0779C57.2477 20.7009 59.9099 17.112 59.9099 12.9633C59.9099 6.05006 54.6247 0.958307 47.8365 0.492681L30.3248 0.492676H19.4332C13.9524 0.492676 9.38509 2.41475 5.73123 6.25891C2.03932 10.1031 0.193359 14.8417 0.193359 20.4747C0.193359 26.1077 2.03932 30.8463 5.73123 34.6905C9.38509 38.5346 13.9524 40.4567 19.4332 40.4567H28.6654V32.8837L19.4332 32.9206C15.9696 32.9206 13.1531 31.7788 10.9836 29.4951C8.81417 27.1734 7.72943 24.1666 7.72943 20.4747C7.72943 16.7828 8.81417 13.795 10.9836 11.5113C13.1531 9.18961 15.9696 8.02875 19.4332 8.02875L30.3248 8.0366L46.8359 8.05347C49.8103 8.05347 52.0313 10.2738 52.0313 13.2488C52.0313 15.3802 50.0352 17.3706 46.9903 20.5677Z" fill="white"/>
</svg>
