<svg width="337" height="43" viewBox="0 0 337 43" fill="none" xmlns="http://www.w3.org/2000/svg">
<path d="M46.7969 21.575L33.1521 33.9068L33.1932 41.5L72.294 41.464C77.7747 41.464 82.342 39.5419 85.9959 35.6978C89.6878 31.8536 91.5338 27.115 91.5338 21.482C91.5338 15.849 89.6878 11.1104 85.9959 7.26624C82.342 3.42208 77.7747 1.50001 72.294 1.50001H59.1267C61.4668 3.60483 62.9955 6.17677 63.7763 9.07371L72.294 9.03608C75.7575 9.03608 78.574 10.1969 80.7435 12.5187C82.913 14.8023 83.9977 17.7901 83.9977 21.482C83.9977 25.1739 82.913 28.1807 80.7435 30.5025C78.574 32.7861 75.7575 33.9279 72.294 33.9279L44.8558 33.9068L52.6773 26.0852C57.0543 21.7082 59.7165 18.1193 59.7165 13.9707C59.7165 7.05739 54.4314 1.96563 47.6431 1.50001L30.1315 1.5H19.2398C13.759 1.5 9.19173 3.42208 5.53787 7.26624C1.84596 11.1104 0 15.849 0 21.482C0 27.115 1.84596 31.8536 5.53787 35.6978C9.19173 39.5419 13.759 41.464 19.2398 41.464H28.4721V33.8911L19.2398 33.9279C15.7763 33.9279 12.9598 32.7861 10.7903 30.5025C8.62081 28.1807 7.53607 25.1739 7.53607 21.482C7.53607 17.7901 8.62081 14.8023 10.7903 12.5186C12.9598 10.1969 15.7763 9.03607 19.2398 9.03607L30.1315 9.04392L46.6426 9.0608C49.617 9.0608 51.8379 11.2812 51.8379 14.2561C51.8379 16.3875 49.8418 18.3779 46.7969 21.575Z" fill="#2733BB"/>
<path d="M134.95 24.208C134.806 26.296 134.23 28.132 133.222 29.68C132.214 31.264 130.846 32.452 129.118 33.316C127.39 34.18 125.338 34.576 123.034 34.576C120.442 34.576 118.21 34.072 116.338 32.992C114.466 31.948 112.99 30.436 111.982 28.42C110.974 26.44 110.47 24.1 110.47 21.364C110.47 18.664 110.974 16.324 111.982 14.344C112.99 12.364 114.466 10.852 116.338 9.808C118.21 8.764 120.442 8.224 123.034 8.224C125.338 8.224 127.39 8.656 129.118 9.52C130.846 10.384 132.25 11.572 133.258 13.156C134.266 14.74 134.842 16.54 134.986 18.628H129.334C129.118 16.792 128.47 15.316 127.354 14.236C126.202 13.156 124.762 12.58 122.962 12.58C120.874 12.58 119.218 13.372 117.994 14.92C116.77 16.468 116.194 18.628 116.194 21.364C116.194 24.136 116.806 26.296 118.03 27.88C119.254 29.464 120.91 30.22 123.034 30.22C124.798 30.22 126.238 29.68 127.354 28.6C128.47 27.52 129.118 26.044 129.334 24.208H134.95ZM137.594 34V8.8H142.706V34H137.594ZM147.071 12.076C146.495 11.5 146.207 10.816 146.207 9.988C146.207 9.196 146.495 8.476 147.071 7.9C147.647 7.324 148.367 7 149.195 7C150.023 7 150.743 7.288 151.319 7.864C151.895 8.44 152.219 9.16 152.219 9.988C152.219 10.816 151.895 11.5 151.319 12.076C150.743 12.652 150.023 12.94 149.195 12.94C148.367 12.94 147.647 12.652 147.071 12.076ZM146.675 34V15.424H151.787V34H146.675ZM155.78 19.384C156.608 17.944 157.76 16.828 159.236 16.036C160.676 15.244 162.332 14.848 164.204 14.848C165.968 14.848 167.516 15.208 168.884 15.856C170.252 16.504 171.296 17.476 172.088 18.7C172.88 19.924 173.312 21.364 173.384 23.02H168.308C168.272 21.652 167.876 20.572 167.156 19.852C166.4 19.132 165.428 18.736 164.204 18.736C162.8 18.736 161.72 19.276 160.928 20.284C160.136 21.292 159.776 22.696 159.776 24.496C159.776 26.512 160.136 28.06 160.928 29.104C161.72 30.184 162.8 30.688 164.204 30.688C165.5 30.688 166.472 30.328 167.192 29.572C167.876 28.816 168.236 27.736 168.308 26.296H173.384C173.312 28.096 172.88 29.608 172.052 30.832C171.224 32.056 170.108 32.992 168.74 33.64C167.372 34.288 165.86 34.576 164.204 34.576C162.368 34.576 160.712 34.216 159.272 33.496C157.832 32.776 156.68 31.66 155.816 30.148C154.952 28.636 154.556 26.8 154.556 24.568C154.556 22.588 154.952 20.86 155.78 19.384ZM175.703 34V8.8H180.707V17.224C180.707 19.384 180.671 21.508 180.599 23.668L180.779 23.74C181.355 22.876 181.931 22.156 182.507 21.508C183.083 20.896 183.839 20.104 184.775 19.168L185.279 18.664L188.663 15.424H194.603L190.859 19.06C189.311 20.608 187.871 21.94 186.539 23.02V23.2L187.115 23.236C188.339 23.272 189.347 23.596 190.139 24.244C190.895 24.892 191.507 25.864 192.011 27.088L194.603 34H189.383L187.799 29.644C187.439 28.672 186.971 27.952 186.467 27.448C185.963 26.98 185.279 26.728 184.415 26.728H183.047L180.707 28.996V34H175.703ZM234.988 10.168C236.932 11.104 238.444 12.508 239.56 14.38C240.676 16.252 241.252 18.592 241.252 21.4C241.252 25.72 240.064 28.888 237.688 30.94C235.312 32.992 232.216 34 228.364 34H218.284V8.8H228.364C230.812 8.8 233.044 9.268 234.988 10.168ZM228.184 29.68C230.416 29.68 232.216 28.996 233.548 27.628C234.88 26.26 235.564 24.172 235.564 21.4C235.564 18.556 234.88 16.468 233.548 15.136C232.216 13.804 230.416 13.12 228.148 13.12H223.828V29.68H228.184ZM262.37 25.756H248.186C248.186 27.304 248.69 28.528 249.626 29.392C250.562 30.292 251.75 30.724 253.226 30.724C254.378 30.724 255.35 30.436 256.142 29.86C256.934 29.284 257.474 28.492 257.726 27.556H262.19C261.974 29.068 261.434 30.364 260.534 31.408C259.598 32.488 258.518 33.28 257.222 33.784C255.926 34.324 254.594 34.576 253.226 34.576C250.13 34.576 247.718 33.712 245.954 31.984C244.154 30.256 243.29 27.808 243.29 24.64C243.29 22.696 243.686 21.004 244.478 19.492C245.27 18.016 246.386 16.864 247.826 16.072C249.266 15.28 250.958 14.848 252.902 14.848C254.81 14.848 256.502 15.28 257.942 16.108C259.382 16.972 260.462 18.088 261.218 19.528C261.974 20.968 262.37 22.552 262.37 24.28V25.756ZM249.59 19.816C248.726 20.572 248.258 21.616 248.186 22.984H257.33C257.222 21.652 256.754 20.608 255.926 19.852C255.098 19.096 254.054 18.7 252.794 18.7C251.498 18.7 250.418 19.096 249.59 19.816ZM281.377 16.072C282.565 16.864 283.501 18.016 284.185 19.492C284.833 21.004 285.193 22.732 285.193 24.712C285.193 26.728 284.833 28.456 284.185 29.932C283.501 31.444 282.565 32.596 281.377 33.388C280.189 34.18 278.821 34.576 277.309 34.576C275.725 34.576 274.321 34.108 273.097 33.136C271.873 32.164 270.973 30.724 270.469 28.816H270.253V40.624H265.141V15.424H270.109L270.253 20.644H270.469C270.973 18.736 271.873 17.296 273.097 16.324C274.321 15.352 275.725 14.848 277.309 14.848C278.821 14.848 280.189 15.28 281.377 16.072ZM278.713 29.356C279.577 28.24 280.045 26.692 280.045 24.712C280.045 22.768 279.577 21.22 278.713 20.104C277.813 18.988 276.625 18.412 275.149 18.412C273.673 18.412 272.485 18.916 271.585 19.888C270.685 20.896 270.253 22.12 270.253 23.632V25.828C270.253 27.34 270.685 28.564 271.585 29.536C272.485 30.544 273.673 31.012 275.149 31.012C276.625 31.012 277.813 30.472 278.713 29.356ZM287.852 34V8.8H292.964V34H287.852ZM300.677 33.388C299.129 32.596 297.905 31.408 297.005 29.896C296.105 28.384 295.673 26.656 295.673 24.64C295.673 22.696 296.105 21.004 297.005 19.492C297.905 18.016 299.129 16.864 300.677 16.072C302.225 15.28 303.953 14.848 305.825 14.848C307.697 14.848 309.389 15.28 310.937 16.072C312.449 16.864 313.673 18.016 314.573 19.492C315.473 21.004 315.941 22.696 315.941 24.64C315.941 26.656 315.473 28.384 314.609 29.896C313.709 31.408 312.485 32.596 310.937 33.388C309.389 34.18 307.697 34.576 305.825 34.576C303.953 34.576 302.225 34.18 300.677 33.388ZM309.425 29.14C310.289 28.132 310.757 26.62 310.757 24.64C310.757 22.732 310.289 21.256 309.425 20.248C308.561 19.24 307.337 18.736 305.825 18.736C304.241 18.736 303.017 19.24 302.153 20.248C301.289 21.256 300.857 22.732 300.857 24.64C300.857 26.62 301.289 28.132 302.153 29.14C303.017 30.184 304.241 30.688 305.825 30.688C307.337 30.688 308.561 30.184 309.425 29.14ZM326.05 29.5C326.698 27.268 327.598 24.208 328.822 20.356L329.146 19.384L330.37 15.424H335.734L328.678 34.468C328.03 36.196 327.274 37.528 326.446 38.464C325.582 39.4 324.61 40.084 323.458 40.444C322.306 40.804 320.902 40.984 319.21 40.984C318.778 40.984 317.986 40.984 316.906 40.912V36.916C317.338 36.988 317.95 36.988 318.706 36.988C319.786 36.988 320.614 36.844 321.118 36.484C321.622 36.16 322.09 35.548 322.522 34.648L322.81 33.928L316.078 15.424H321.622L322.882 19.492L323.53 21.652C324.394 24.388 325.15 27.016 325.87 29.5H326.05Z" fill="#333333"/>
<path d="M196.014 29.464L197.922 28.06C200.874 25.936 203.07 24.28 204.582 23.056C206.058 21.868 207.246 20.68 208.146 19.492C209.046 18.34 209.514 17.152 209.514 16C209.514 14.92 209.154 14.056 208.506 13.408C207.822 12.796 206.922 12.472 205.77 12.472C204.474 12.472 203.466 12.868 202.746 13.588C202.026 14.308 201.63 15.388 201.594 16.828H196.302C196.374 13.984 197.238 11.86 198.93 10.42C200.586 8.98 202.89 8.26 205.77 8.26C208.506 8.26 210.702 8.944 212.43 10.276C214.158 11.608 215.022 13.48 215.022 15.856C215.022 17.512 214.518 19.06 213.582 20.464C212.646 21.868 211.458 23.128 210.054 24.244C208.614 25.36 206.706 26.728 204.258 28.384L202.746 29.392L202.854 29.644C203.646 29.572 204.546 29.5 205.518 29.464C206.49 29.464 207.534 29.428 208.686 29.428H214.662V34H196.014V29.464Z" fill="#2733BB"/>
</svg>
